<svg width="60" height="34" viewBox="0 0 60 34" fill="none" xmlns="http://www.w3.org/2000/svg">
<path d="M4.1677 3.06645C-1.68381 3.23918 5.90579 3.91474 8.27281 3.58461C14.0994 2.77198 20.0316 3.06108 25.8252 2.30638C27.0645 2.14494 24.4498 2.16467 24.1044 2.16467" stroke="#1E1E1E" stroke-width="3" stroke-linecap="round" stroke-linejoin="round"/>
<path d="M14.6597 4.96017C12.6234 9.90524 13.4835 14.6761 13.6989 20.319C13.8426 24.0859 13.8451 35.3966 13.8451 31.627" stroke="#1E1E1E" stroke-width="3" stroke-linecap="round" stroke-linejoin="round"/>
<path d="M23.0122 5.06324C22.9984 4.82845 22.6273 4.03558 22.6273 4.70325C22.6273 8.88581 22.672 13.0676 22.672 17.2501C22.672 18.2073 21.8911 31.4597 23.245 31.5368C25.5192 31.6664 27.9036 17.4732 30.4585 18.9148C32.8602 20.27 29.8991 30.228 33.2089 30.532" stroke="#1E1E1E" stroke-width="3" stroke-linecap="round" stroke-linejoin="round"/>
<path d="M43.7009 21.9909C42.6316 23.9419 42.6896 20.5058 42.4207 20.2389C39.8637 17.7003 37.2136 27.7156 38.8229 29.7891C42.1434 34.0672 43.2451 23.5692 43.9754 22.562C45.8921 19.9189 43.3508 31.6119 46.5925 32.0006" stroke="#1E1E1E" stroke-width="3" stroke-linecap="round" stroke-linejoin="round"/>
<path d="M52.4294 8.90225C50.5991 7.91068 52.3128 38.9792 58.4632 28.5481" stroke="#1E1E1E" stroke-width="3" stroke-linecap="round" stroke-linejoin="round"/>
<path d="M50.5852 22.094C48.2864 23.3372 55.3542 19.8784 57.8902 19.2469" stroke="#1E1E1E" stroke-width="3" stroke-linecap="round" stroke-linejoin="round"/>
</svg>
