<svg width="54" height="33" viewBox="0 0 54 33" fill="none" xmlns="http://www.w3.org/2000/svg">
<path d="M3.92773 3.26289C3.92773 -0.293783 4.36046 4.66749 4.49122 5.86445C5.42964 14.4548 2.46503 21.7258 1.89656 30.0485C1.81479 31.2457 7.87794 30.048 9.24388 29.9462C9.83544 29.9021 15.894 29.506 15.4135 28.7832" stroke="#1E1E1E" stroke-width="3" stroke-linecap="round" stroke-linejoin="round"/>
<path d="M22.7185 19.3403C21.8627 19.3152 20.9153 18.5312 20.0269 18.9381C17.7842 19.9653 18.8254 26.6952 19.8389 28.0668C26.0248 36.4384 31.2362 16.8272 20.2029 19.5335" stroke="#1E1E1E" stroke-width="3" stroke-linecap="round" stroke-linejoin="round"/>
<path d="M30.4085 20.1004C25.7805 21.079 33.5192 27.8844 35.0781 29.1961C36.1009 30.0567 35.852 26.5717 36.0027 25.7973C36.5141 23.1699 37.389 20.6474 38.2418 18.1165" stroke="#1E1E1E" stroke-width="3" stroke-linecap="round" stroke-linejoin="round"/>
<path d="M43.8906 22.2904C42.6867 22.2904 46.2104 21.5927 47.2766 21.0336C47.7609 20.7797 51.1135 17.7481 49.2779 17.4179C46.0568 16.8385 42.804 20.7228 41.9629 23.4355C40.0089 29.7377 47.5933 29.5046 51.9119 29.5046" stroke="#1E1E1E" stroke-width="3" stroke-linecap="round" stroke-linejoin="round"/>
</svg>
