<svg width="46" height="23" viewBox="0 0 46 23" fill="none" xmlns="http://www.w3.org/2000/svg">
<path d="M3.1264 3.63323C1.62601 3.63323 2.50414 2.36406 3.39541 1.90871C5.92584 0.615926 4.22949 13.1931 4.02103 14.4535C3.35135 18.5023 0.818138 22.8606 6.44214 19.4099C7.78472 18.5862 14.2078 16.1904 12.7483 16.5611" stroke="#1E1E1E" stroke-width="3" stroke-linecap="round" stroke-linejoin="round"/>
<path d="M17.5154 12.978C12.8378 11.966 15.0205 16.6754 18.116 18.2376C22.019 20.2073 22.0972 13.1437 18.116 12.78" stroke="#1E1E1E" stroke-width="3" stroke-linecap="round" stroke-linejoin="round"/>
<path d="M23.8842 13.2481C23.1803 13.5267 28.2664 19.0073 29.7176 19.2039C31.2588 19.4126 30.5148 11.5042 31.2538 10.5293" stroke="#1E1E1E" stroke-width="3" stroke-linecap="round" stroke-linejoin="round"/>
<path d="M36.4214 14.1124C34.5395 14.2929 41.1058 12.3694 40.7972 10.5043C40.6684 9.72587 38.4006 13.3162 38.3246 14.0003C37.9169 17.6703 41.1007 18.1579 44.1164 18.6137" stroke="#1E1E1E" stroke-width="3" stroke-linecap="round" stroke-linejoin="round"/>
</svg>
