<svg width="55" height="24" viewBox="0 0 55 24" fill="none" xmlns="http://www.w3.org/2000/svg">
<path d="M2.09285 3.55299C2.09285 2.66392 2.83697 1.02673 3.35006 2.77316C4.86472 7.9287 4.69835 17.2374 2.29275 22.1095C2.28641 22.1223 2.06389 21.3606 2.59877 21.0297C3.94788 20.195 5.85645 19.7406 7.40213 19.5505C8.92121 19.3636 14.604 20.5471 13.6636 20.5471" stroke="#1E1E1E" stroke-width="3" stroke-linecap="round" stroke-linejoin="round"/>
<path d="M21.0818 13.4059C17.9666 12.7149 16.8377 12.0159 16.9208 16.6902C16.9696 19.4376 22.0545 21.1746 24.0443 19.451C26.5796 17.255 22.3772 13.5504 20.5361 12.682" stroke="#1E1E1E" stroke-width="3" stroke-linecap="round" stroke-linejoin="round"/>
<path d="M27.9457 13.7617C26.1641 13.7617 27.8287 13.8881 28.7463 14.4741C30.9719 15.8955 33.117 17.5322 34.8372 19.5478C36.2588 21.2135 35.5403 19.0399 35.597 17.6514C35.7017 15.0886 36.6914 12.6539 36.805 10.1053" stroke="#1E1E1E" stroke-width="3" stroke-linecap="round" stroke-linejoin="round"/>
<path d="M41.6908 13.7617C41.3622 13.7617 44.6524 13.9288 45.3885 13.8299C46.7915 13.6414 50.3812 11.1003 47.4387 10.1939C44.813 9.38506 42.763 11.6186 42.1095 13.9567C40.2954 20.4479 48.3503 20.7049 52.7243 20.4121" stroke="#1E1E1E" stroke-width="3" stroke-linecap="round" stroke-linejoin="round"/>
</svg>
