<svg width="31" height="31" viewBox="0 0 31 31" fill="none" xmlns="http://www.w3.org/2000/svg">
<path d="M3.87684 5.09361C2.41206 5.79128 1.35306 7.54676 3.95832 6.88095C9.16048 5.55146 24.6073 1.04899 19.3442 2.11197" stroke="#1E1E1E" stroke-width="3" stroke-linecap="round" stroke-linejoin="round"/>
<path d="M12.7872 4.18564C10.1022 5.7698 10.701 8.60477 10.7607 11.3596C10.8648 16.1604 10.5703 20.9096 10.5703 25.6951" stroke="#1E1E1E" stroke-width="3" stroke-linecap="round" stroke-linejoin="round"/>
<path d="M3.69776 28.7749C3.50189 29.7614 5.94854 28.3578 6.78963 27.9733C11.6223 25.7635 16.7434 23.63 22.0045 22.7135" stroke="#1E1E1E" stroke-width="3" stroke-linecap="round" stroke-linejoin="round"/>
<path d="M25.671 3.60889C24.9602 3.60889 24.4517 3.05821 24.4517 3.98654C24.4517 8.8912 23.8606 13.662 23.4635 18.5443C23.05 23.6293 23.9679 26.0141 29.1925 26.0141" stroke="#1E1E1E" stroke-width="3" stroke-linecap="round" stroke-linejoin="round"/>
<path d="M20.1543 19.4619C23.0377 18.9276 26.1275 16.8502 28.9197 15.8545" stroke="#1E1E1E" stroke-width="3" stroke-linecap="round" stroke-linejoin="round"/>
</svg>
