<svg width="89" height="30" viewBox="0 0 89 30" fill="none" xmlns="http://www.w3.org/2000/svg">
<path d="M3.39705 11.7135C2.95644 11.7135 1.61422 12.6068 2.71208 12.6215C4.93886 12.6511 7.46274 11.4677 7.78166 8.96225C8.46505 3.5936 4.05559 8.55119 3.50032 11.3113C2.73267 15.1271 6.36638 21.581 10.406 17.37" stroke="#1E1E1E" stroke-width="3" stroke-linecap="round" stroke-linejoin="round"/>
<path d="M13.7058 7.51712C13.8563 7.30591 13.7156 6.93074 13.7598 7.59347C13.9114 9.86602 14.5089 12.1592 14.9962 14.3775C16.3818 20.6856 16.5404 18.3363 17.1847 13.5295C17.4406 11.6206 19.3444 2.39413 21.188 8.35421C21.7058 10.0284 22.3079 16.2469 24.7308 16.4129" stroke="#1E1E1E" stroke-width="3" stroke-linecap="round" stroke-linejoin="round"/>
<path d="M28.4399 7.92199C25.3727 5.38948 26.2852 15.793 29.3106 17.6099C39.0901 23.483 32.092 0.713053 27.3997 6.5232" stroke="#1E1E1E" stroke-width="3" stroke-linecap="round" stroke-linejoin="round"/>
<path d="M35.807 8.32692C35.5121 8.32692 39.531 17.3204 41.9452 18.1007C47.2059 19.8012 45.5159 7.84362 42.995 5.84836" stroke="#1E1E1E" stroke-width="3" stroke-linecap="round" stroke-linejoin="round"/>
<path d="M56.2369 9.45577C55.5055 8.95054 54.2128 8.11522 53.4146 7.78703C49.9055 6.34426 46.2941 15.021 52.2204 14.4592C54.5748 14.2361 55.9987 11.5004 56.0555 9.37737C56.1073 7.43923 55.273 11.2534 55.3748 12.147C55.8965 16.7283 58.627 20.7407 58.676 25.4526C58.7119 28.9069 55.125 28.5348 53.6192 26.4008" stroke="#1E1E1E" stroke-width="3" stroke-linecap="round" stroke-linejoin="round"/>
<path d="M61.3017 1.5538C59.2716 2.35575 60.7034 3.23681 61.3207 5.54704C62.3225 9.29628 62.8902 13.215 63.2008 17.0789C63.2397 17.5623 63.6557 21.7 63.855 21.4177C65.3212 19.3408 66.8237 10.452 69.6399 10.0038C70.2388 9.9085 71.026 13.7712 71.2278 14.2929C72.2811 17.0167 73.9932 18.4879 76.5816 19.7136" stroke="#1E1E1E" stroke-width="3" stroke-linecap="round" stroke-linejoin="round"/>
<path d="M87.0267 17.9958C87.0267 20.3322 87.1176 22.3665 85.8927 24.4621" stroke="#1E1E1E" stroke-width="3" stroke-linecap="round" stroke-linejoin="round"/>
</svg>
