<svg width="30" height="23" viewBox="0 0 30 23" fill="none" xmlns="http://www.w3.org/2000/svg">
<path d="M4.82807 3.44343C3.02085 1.63429 4.98147 4.47419 5.39747 6.64389C6.14908 10.5641 6.45289 14.5495 7.17007 18.4743C7.37165 19.5775 7.94664 21.7084 7.08764 19.4927" stroke="#1E1E1E" stroke-width="3" stroke-linecap="round" stroke-linejoin="round"/>
<path d="M1.57088 12.3024C1.57088 12.9449 1.68995 12.6467 2.65708 12.2356C5.59439 10.987 8.79409 10.4128 11.9734 10.4128" stroke="#1E1E1E" stroke-width="3" stroke-linecap="round" stroke-linejoin="round"/>
<path d="M10.703 1.63974C10.703 2.41738 9.81817 4.51671 9.93272 6.05289C10.0251 7.29176 12.6956 21.3503 12.9663 21.2378C15.0687 20.3645 14.2602 13.8946 17.5248 13.023C19.1049 12.6011 18.4699 18.6094 19.1614 19.6277" stroke="#1E1E1E" stroke-width="3" stroke-linecap="round" stroke-linejoin="round"/>
<path d="M22.3675 14.3883C22.3007 15.5404 26.9823 10.6337 25.1372 10.6337C23.0728 10.6337 22.2602 12.9503 22.2334 14.704C22.1839 17.9446 25.1482 19.1226 27.9269 19.3946" stroke="#1E1E1E" stroke-width="3" stroke-linecap="round" stroke-linejoin="round"/>
</svg>
