<svg width="72" height="32" viewBox="0 0 72 32" fill="none" xmlns="http://www.w3.org/2000/svg">
<path d="M10.0393 7.11833C10.0393 5.10044 8.38113 0.0559148 6.16253 3.57772C3.22872 8.23483 4.7857 13.9688 6.41454 18.7095C6.9498 20.2674 8.44604 25.4482 4.983 23.6584" stroke="#1E1E1E" stroke-width="3" stroke-linecap="round" stroke-linejoin="round"/>
<path d="M2.27151 15.5233C2.27151 16.2527 8.31668 15.1094 8.9138 15.0202" stroke="#1E1E1E" stroke-width="3" stroke-linecap="round" stroke-linejoin="round"/>
<path d="M12.9384 13.9895C12.9384 16.8048 13.4142 18.6158 14.3813 21.5806C14.5564 22.1176 15.1091 17.87 15.3391 17.0782C15.9695 14.9079 17.0698 11.557 19.7171 11.3637" stroke="#1E1E1E" stroke-width="3" stroke-linecap="round" stroke-linejoin="round"/>
<path d="M22.2922 15.2043C20.0327 17.9092 26.1481 16.0067 26.2206 13.9405C26.3006 11.6601 23.4096 13.6791 22.89 14.704C21.0952 18.2435 23.8475 20.0689 27.1268 20.1246" stroke="#1E1E1E" stroke-width="3" stroke-linecap="round" stroke-linejoin="round"/>
<path d="M32.959 13.7564C32.1015 13.7564 34.631 19.6863 34.7241 20.6768" stroke="#1E1E1E" stroke-width="3" stroke-linecap="round" stroke-linejoin="round"/>
<path d="M34.0419 8.78702C33.5142 8.78702 32.6628 8.85162 32.6009 9.51095" stroke="#1E1E1E" stroke-width="3" stroke-linecap="round" stroke-linejoin="round"/>
<path d="M43.4895 14.4313C42.87 13.2557 40.6969 11.8758 39.5587 13.1157C36.9853 15.9187 40.4556 22.5358 42.4511 19.2289C43.2325 17.934 43.3104 16.4273 43.3104 14.9534C43.3104 12.9873 44.4629 18.7137 44.9798 20.6106C45.558 22.733 46.8167 27.2138 45.3644 29.2365C44.5172 30.4165 42.9003 30.0464 42.5004 28.7996" stroke="#1E1E1E" stroke-width="3" stroke-linecap="round" stroke-linejoin="round"/>
<path d="M47.7869 7.79318C46.5538 7.92674 48.8778 14.7897 49.0081 15.2234C49.7573 17.7168 50.4229 23.8212 51.8381 18.8104C52.0926 17.909 54.6964 10.1195 56.0834 13.5233C56.8698 15.4534 56.9942 21.5923 59.4003 22.2106" stroke="#1E1E1E" stroke-width="3" stroke-linecap="round" stroke-linejoin="round"/>
<path d="M63.6039 5.08145C59.2591 5.08145 68.2018 26.9563 70.2036 20.3086" stroke="#1E1E1E" stroke-width="3" stroke-linecap="round" stroke-linejoin="round"/>
<path d="M60.577 13.8055C60.0669 14.6444 67.2277 12.8544 68.3107 12.6276" stroke="#1E1E1E" stroke-width="3" stroke-linecap="round" stroke-linejoin="round"/>
</svg>
