<svg width="69" height="24" viewBox="0 0 69 24" fill="none" xmlns="http://www.w3.org/2000/svg">
<path d="M8.69302 11.0394C9.19299 11.0394 3.95604 6.17862 2.78782 10.9017C1.84461 14.7151 9.22621 14.8579 9.79202 18.5644C10.5212 23.3414 3.51492 19.148 2.27243 17.4567" stroke="#1E1E1E" stroke-width="3" stroke-linecap="round" stroke-linejoin="round"/>
<path d="M14.0222 2.3154C13.6262 2.3154 15.0989 11.0157 15.1799 11.9924C15.2456 12.7839 15.9021 22.9919 16.0089 19.5794" stroke="#1E1E1E" stroke-width="3" stroke-linecap="round" stroke-linejoin="round"/>
<path d="M16.2818 15.199C12.4505 16.3845 21.2278 8.90948 23.0624 8.9658C23.4666 8.97821 23.2571 20.3074 24.9619 21.5672" stroke="#1E1E1E" stroke-width="3" stroke-linecap="round" stroke-linejoin="round"/>
<path d="M31.3825 10.1805C26.0718 10.2587 26.6789 16.1762 29.8667 19.3763C31.7382 21.255 34.5822 21.0204 34.8325 18.0375C35.0517 15.4252 33.5471 12.8642 31.5616 11.2235" stroke="#1E1E1E" stroke-width="3" stroke-linecap="round" stroke-linejoin="round"/>
<path d="M37.7093 10.8186C36.856 13.1461 35.7493 14.6066 37.121 17.3694C38.1359 19.4137 42.9159 23.1168 44.0806 19.4226C44.9177 16.7678 44.5818 13.8116 44.5818 11.0612C44.5818 8.05264 45.2853 17.7391 47.7026 19.5303" stroke="#1E1E1E" stroke-width="3" stroke-linecap="round" stroke-linejoin="round"/>
<path d="M50.2776 3.44424C49.9428 3.44424 51.8569 9.34465 51.9891 9.86423C52.9836 13.7703 53.9455 17.7341 54.6604 21.7022" stroke="#1E1E1E" stroke-width="3" stroke-linecap="round" stroke-linejoin="round"/>
<path d="M63.8351 13.2481C61.7446 13.6485 59.8309 13.219 58.6309 15.2958C55.7987 20.1976 62.6319 23.7236 65.6427 19.8003" stroke="#1E1E1E" stroke-width="3" stroke-linecap="round" stroke-linejoin="round"/>
<path d="M63.0677 1.86142C57.6461 5.08587 64.4117 15.6126 66.6403 19.4445" stroke="#1E1E1E" stroke-width="3" stroke-linecap="round" stroke-linejoin="round"/>
</svg>
