<svg width="116" height="30" viewBox="0 0 116 30" fill="none" xmlns="http://www.w3.org/2000/svg">
<path d="M3.60651 9.5849C0.963183 9.5849 3.12243 12.321 3.75804 13.9722C4.79932 16.6773 4.29633 24.0311 6.13397 25.8978" stroke="#1E1E1E" stroke-width="3" stroke-linecap="round" stroke-linejoin="round"/>
<path d="M3.68158 9.2428C3.68158 9.58019 1.48482 9.44086 3.71773 9.44086C5.89499 9.44086 8.28365 9.59907 10.0962 10.9713C13.5344 13.5744 5.84787 16.8051 3.8067 16.8051" stroke="#1E1E1E" stroke-width="3" stroke-linecap="round" stroke-linejoin="round"/>
<path d="M14.2919 11.0974C13.0447 13.1598 12.037 14.1147 14.8897 16.1989C17.141 17.8436 16.1314 10.2867 18.3334 8.5766" stroke="#1E1E1E" stroke-width="3" stroke-linecap="round" stroke-linejoin="round"/>
<path d="M24.9023 9.04474C24.5885 9.04474 23.2428 8.05544 23.0129 8.34653C22.1898 9.38894 22.8658 13.7089 23.5829 14.6734C26.3539 18.4001 29.7235 11.9504 24.577 9.38684" stroke="#1E1E1E" stroke-width="3" stroke-linecap="round" stroke-linejoin="round"/>
<path d="M32.6599 9.98102C27.7363 15.6418 36.1758 21.5268 36.1758 27.9504" stroke="#1E1E1E" stroke-width="3" stroke-linecap="round" stroke-linejoin="round"/>
<path d="M32.9977 10.1791C27.1519 10.7893 36.1983 9.1347 38.859 12.8139C42.01 17.1712 32.0269 17.672 32.3971 15.2746" stroke="#1E1E1E" stroke-width="3" stroke-linecap="round" stroke-linejoin="round"/>
<path d="M43.5455 12.1057C37.9097 12.1057 42.4465 16.2797 45.8533 16.639C51.5026 17.2349 44.2228 9.50129 43.0074 10.7733" stroke="#1E1E1E" stroke-width="3" stroke-linecap="round" stroke-linejoin="round"/>
<path d="M51.5032 13.42C51.5032 21.7036 51.3953 13.1423 55.0192 11.2954" stroke="#1E1E1E" stroke-width="3" stroke-linecap="round" stroke-linejoin="round"/>
<path d="M60.0616 5.85779C55.8101 5.85779 62.5867 16.4254 63.7026 18.0654" stroke="#1E1E1E" stroke-width="3" stroke-linecap="round" stroke-linejoin="round"/>
<path d="M59.1982 11.7636C59.0746 12.3988 57.4058 13.0655 59.8266 12.0336C62.4252 10.926 65.2339 10.4821 68.0437 10.5792C69.6872 10.636 70.6774 15.3751 71.9357 16.733" stroke="#1E1E1E" stroke-width="3" stroke-linecap="round" stroke-linejoin="round"/>
<path d="M71.5978 7.11816C70.4649 7.31847 67.0065 7.38824 68.157 7.38824" stroke="#1E1E1E" stroke-width="3" stroke-linecap="round" stroke-linejoin="round"/>
<path d="M77.366 10.3771C71.8681 12.5499 74.6508 16.2565 79.8802 17.5033C81.993 18.007 76.5026 9.24353 76.5026 8.77466" stroke="#1E1E1E" stroke-width="3" stroke-linecap="round" stroke-linejoin="round"/>
<path d="M83.6721 11.0974C83.6721 11.9891 84.3604 20.4863 86.3386 16.1949C89.9273 8.40981 89.2998 11.4502 92.5558 16.8051" stroke="#1E1E1E" stroke-width="3" stroke-linecap="round" stroke-linejoin="round"/>
<path d="M96.347 12.3037C92.1092 14.3264 100.714 13.4318 100.714 10.7172C100.714 9.1098 97.5068 11.7953 97.243 12.5328C96.2614 15.2767 97.4554 17.1754 100.251 17.5433" stroke="#1E1E1E" stroke-width="3" stroke-linecap="round" stroke-linejoin="round"/>
<path d="M110.999 12.2317C99.4 12.2317 108.213 21.217 113.651 16.0848" stroke="#1E1E1E" stroke-width="3" stroke-linecap="round" stroke-linejoin="round"/>
<path d="M110.473 2.14868C104.708 6.71521 110.144 13.5284 114.315 17.4713" stroke="#1E1E1E" stroke-width="3" stroke-linecap="round" stroke-linejoin="round"/>
</svg>
