<svg width="126" height="34" viewBox="0 0 126 34" fill="none" xmlns="http://www.w3.org/2000/svg">
<path d="M1.71973 12.0885C1.71973 10.0688 2.75331 14.0704 2.8064 14.4116C3.64917 19.8278 3.97789 36.2603 4.29478 30.7881" stroke="#1E1E1E" stroke-width="3" stroke-linecap="round" stroke-linejoin="round"/>
<path d="M3.43359 9.24185C2.49896 9.24185 11.1462 9.88203 11.4951 12.2848C11.9476 15.4011 6.41577 17.7118 4.25689 18.8589C3.31081 19.3616 0.0281355 20.9573 2.89641 19.6346" stroke="#1E1E1E" stroke-width="3" stroke-linecap="round" stroke-linejoin="round"/>
<path d="M14.2881 11.7204C14.0311 14.1241 14.536 16.0806 15.19 18.7157C15.7655 21.0347 15.6995 17.0083 15.8323 16.2658C16.2941 13.6843 17.2608 10.8326 19.6684 9.51181" stroke="#1E1E1E" stroke-width="3" stroke-linecap="round" stroke-linejoin="round"/>
<path d="M25.9525 11.2296C23.169 11.2296 20.5917 10.6626 22.2719 15.2133C22.9399 17.0226 26.8453 21.1308 29.0828 19.2208C31.8158 16.8879 27.7269 12.6348 26.0378 11.1805" stroke="#1E1E1E" stroke-width="3" stroke-linecap="round" stroke-linejoin="round"/>
<path d="M34.087 10.4075C32.2909 10.4075 34.1443 15.2007 34.358 16.0811C35.2743 19.8566 35.8947 31.5199 35.8947 27.6347" stroke="#1E1E1E" stroke-width="3" stroke-linecap="round" stroke-linejoin="round"/>
<path d="M33.908 9.91673C31.4467 8.60168 39.1885 9.97951 40.8468 11.7313C45.7406 16.9011 33.9506 17.0613 33.9506 18.9475" stroke="#1E1E1E" stroke-width="3" stroke-linecap="round" stroke-linejoin="round"/>
<path d="M47.3716 12.0394C47.3716 8.70408 46.0249 13.2114 46.0158 14.6161C46.0006 16.9691 46.1429 18.9092 48.1058 20.4908C49.4616 21.5832 51.7044 21.6861 52.1361 19.6455C52.8811 16.1241 50.1014 11.2289 46.2461 11.0455" stroke="#1E1E1E" stroke-width="3" stroke-linecap="round" stroke-linejoin="round"/>
<path d="M54.4743 12.6775C54.4743 15.5469 56.0565 18.0228 56.5202 20.8105C56.7862 22.4095 55.9975 17.589 56.0617 15.9693C56.1524 13.6782 57.3934 11.0308 59.8461 10.6407" stroke="#1E1E1E" stroke-width="3" stroke-linecap="round" stroke-linejoin="round"/>
<path d="M66.0876 5.48721C62.851 5.48721 64.0527 8.79881 64.7835 11.2317C65.759 14.4789 68.9176 24.1385 67.6736 20.9844" stroke="#1E1E1E" stroke-width="3" stroke-linecap="round" stroke-linejoin="round"/>
<path d="M63.8707 13.6223C61.449 14.5048 71.144 11.1652 72.6556 11.0531C73.8605 10.9638 72.8738 18.3023 74.674 19.9905" stroke="#1E1E1E" stroke-width="3" stroke-linecap="round" stroke-linejoin="round"/>
<path d="M74.2221 7.96576C74.1907 7.68089 72.9523 7.42587 72.6447 7.42587" stroke="#1E1E1E" stroke-width="3" stroke-linecap="round" stroke-linejoin="round"/>
<path d="M80.5574 12.3953C80.7958 12.3953 80.8585 11.4711 80.7038 11.3857C78.1597 9.98237 77.9984 16.6485 78.1368 17.5706C78.774 21.817 85.4278 23.5906 85.6535 18.2754C85.8134 14.5125 82.8317 12.252 79.6962 10.9106" stroke="#1E1E1E" stroke-width="3" stroke-linecap="round" stroke-linejoin="round"/>
<path d="M88.8283 11.5364C86.5765 13.4536 87.624 14.2347 89.4995 16.9386C90.4238 18.2711 91.6216 19.7549 91.9638 21.3797C92.1725 22.3711 91.1354 19.6837 91.0955 19.197C90.8669 16.41 91.2682 13.8728 92.5895 11.3837C93.2722 10.0978 95.3759 7.56922 96.4843 9.84039C97.392 11.7002 97.4404 21.2592 99.7169 21.5733" stroke="#1E1E1E" stroke-width="3" stroke-linecap="round" stroke-linejoin="round"/>
<path d="M105.012 13.9781C105.012 14.5062 109.976 10.758 107.211 10.7756C104.157 10.7951 102.482 14.8282 102.393 17.3824C102.239 21.8086 106.936 22.141 110.341 21.7573" stroke="#1E1E1E" stroke-width="3" stroke-linecap="round" stroke-linejoin="round"/>
<path d="M121.144 14.5671C118.214 14.5671 116.515 11.5968 114.14 15.0776C109.875 21.3263 117.988 23.7657 122.091 19.4997" stroke="#1E1E1E" stroke-width="3" stroke-linecap="round" stroke-linejoin="round"/>
<path d="M119.789 1.78165C114.099 3.57007 122.282 16.1595 124.223 18.8125" stroke="#1E1E1E" stroke-width="3" stroke-linecap="round" stroke-linejoin="round"/>
</svg>
