<svg width="36" height="26" viewBox="0 0 36 26" fill="none" xmlns="http://www.w3.org/2000/svg">
<path d="M6.77591 3.09537C6.77591 0.0878239 7.14876 2.10578 7.28183 4.41645C7.6201 10.2906 7.24839 16.8095 9.04495 22.4671C9.78822 24.8078 10.5276 25.2315 10.5276 22.6539" stroke="#1E1E1E" stroke-width="3" stroke-linecap="round" stroke-linejoin="round"/>
<path d="M2.70868 14.7519C-0.544555 17.5785 11.2345 13.3968 15.4049 12.3102" stroke="#1E1E1E" stroke-width="3" stroke-linecap="round" stroke-linejoin="round"/>
<path d="M15.2259 2.86218C12.5411 2.86218 14.1656 10.4567 14.376 12.0798C14.5108 13.1193 15.6005 24.7065 17.241 20.2775C17.4797 19.6331 20.9198 11.1906 22.2736 13.7417C22.87 14.8653 22.4397 22.2674 23.4115 22.3839" stroke="#1E1E1E" stroke-width="3" stroke-linecap="round" stroke-linejoin="round"/>
<path d="M26.5748 16.1998C25.2733 17.7083 27.2934 16.6127 28.2811 16.1017C30.0518 15.1855 31.8146 14.0057 31.7226 11.7942C31.638 9.76132 28.646 14.35 28.4986 15.0185C27.4711 19.6767 29.7259 22.2652 34.4364 22.4331" stroke="#1E1E1E" stroke-width="3" stroke-linecap="round" stroke-linejoin="round"/>
</svg>
