<svg width="74" height="30" viewBox="0 0 74 30" fill="none" xmlns="http://www.w3.org/2000/svg">
<path d="M8.31157 6.61697C9.55075 6.61697 8.3397 5.36334 7.63133 5.25499C2.61135 4.48719 -0.906234 14.7249 4.91795 14.752C9.4396 14.7731 7.03896 4.33201 8.88854 12.7234C9.84866 17.0794 10.195 21.6136 10.2533 26.0685C10.2772 27.8945 9.57187 28.7612 8.3542 26.8995" stroke="#1E1E1E" stroke-width="3" stroke-linecap="round" stroke-linejoin="round"/>
<path d="M14.681 6.75197C11.4499 6.88233 15.743 14.8306 16.3091 16.0213C16.5052 16.4338 16.5042 11.596 16.6445 10.6593C16.9468 8.64092 17.8751 5.39911 20.2915 5.20593" stroke="#1E1E1E" stroke-width="3" stroke-linecap="round" stroke-linejoin="round"/>
<path d="M28.3834 6.43287C27.4803 6.43287 25.2321 6.02682 24.5634 6.71304C22.9984 8.31917 22.3011 12.5961 23.9107 14.3035C29.04 19.7447 33.3106 6.97696 25.8509 5.62305" stroke="#1E1E1E" stroke-width="3" stroke-linecap="round" stroke-linejoin="round"/>
<path d="M36.748 7.05875C36.748 3.92466 28.042 10.8397 32.9755 14.4617C36.0251 16.7007 40.4455 15.653 39.866 11.3512C39.6961 10.0907 36.3134 3.82401 34.352 4.89921" stroke="#1E1E1E" stroke-width="3" stroke-linecap="round" stroke-linejoin="round"/>
<path d="M43.5267 4.985C42.3775 8.60266 45.802 12.4989 49.1112 15.1794C50.1774 16.043 49.7561 11.4518 49.8393 10.7669C50.1647 8.09138 50.8859 4.80429 52.6588 2.67822" stroke="#1E1E1E" stroke-width="3" stroke-linecap="round" stroke-linejoin="round"/>
<path d="M56.2741 9.05879C54.2647 9.05879 57.2298 8.97943 57.8734 8.86656C60.2012 8.45832 64.0339 6.42524 62.2523 3.40773C60.0676 -0.292592 57.4521 7.6583 57.3779 8.96063C57.0773 14.2354 62.0379 16.7873 66.4379 13.6601" stroke="#1E1E1E" stroke-width="3" stroke-linecap="round" stroke-linejoin="round"/>
<path d="M72.1338 17.3165C72.0685 17.5621 71.2226 17.6124 71.1447 17.3656" stroke="#1E1E1E" stroke-width="3" stroke-linecap="round" stroke-linejoin="round"/>
</svg>
