<svg width="59" height="26" viewBox="0 0 59 26" fill="none" xmlns="http://www.w3.org/2000/svg">
<path d="M6.23149 3.31479C6.23149 -3.30918 7.85528 29.76 7.5446 23.1433" stroke="#1E1E1E" stroke-width="3" stroke-linecap="round" stroke-linejoin="round"/>
<path d="M3.16188 15.5972C1.55876 15.5972 2.83413 15.474 3.89755 15.1036C7.13065 13.9776 10.5131 13.2519 13.8714 12.6155" stroke="#1E1E1E" stroke-width="3" stroke-linecap="round" stroke-linejoin="round"/>
<path d="M13.0614 2.99579C12.5889 7.63144 12.7738 11.8491 13.3674 16.6292C13.4695 17.4515 13.7499 26.4904 15.1495 23.1842C15.5925 22.1375 18.6922 13.9811 20.6075 15.2441C23.1299 16.9074 20.8762 23.2187 24.3166 24.2353" stroke="#1E1E1E" stroke-width="3" stroke-linecap="round" stroke-linejoin="round"/>
<path d="M26.6614 17.0941C24.3635 19.3635 37.5054 14.7323 32.5221 13.3217C27.9914 12.0393 26.1969 26.5051 36.9702 22.1126" stroke="#1E1E1E" stroke-width="3" stroke-linecap="round" stroke-linejoin="round"/>
<path d="M39.5964 15.6953C37.8497 15.8376 41.7096 23.3436 42.2965 24.0785C43.6136 25.7277 42.1796 19.8105 42.6712 17.7581C43.0773 16.0629 43.5744 14.0831 45.5139 13.7935" stroke="#1E1E1E" stroke-width="3" stroke-linecap="round" stroke-linejoin="round"/>
<path d="M49.223 17.3641C49.223 16.751 51.847 15.6584 52.3466 15.2304C52.8139 14.8301 54.4517 13.0695 52.9653 13.0695C50.838 13.0695 50.0471 16.1621 50.033 17.8644C50.0015 21.6782 54.2823 21.8795 57.221 21.8795" stroke="#1E1E1E" stroke-width="3" stroke-linecap="round" stroke-linejoin="round"/>
</svg>
