<svg width="54" height="20" viewBox="0 0 54 20" fill="none" xmlns="http://www.w3.org/2000/svg">
<path d="M2.11918 4.42409C2.10846 4.22659 0.997478 0.0954736 2.11918 3.20311C3.2155 6.24041 3.57747 9.64491 3.96683 12.8328C4.04038 13.435 4.3483 18.4771 4.3483 15.7092" stroke="#1E1E1E" stroke-width="3" stroke-linecap="round" stroke-linejoin="round"/>
<path d="M9.71068 5.89273C9.71068 7.95332 7.49328 9.99015 6.17653 11.3621C4.87946 12.7135 2.36737 13.22 4.66658 12.5788C6.82445 11.9769 10.5648 11.7556 11.9716 13.8871C12.2496 14.3082 13.3207 17.3324 12.1367 17.3324" stroke="#1E1E1E" stroke-width="3" stroke-linecap="round" stroke-linejoin="round"/>
<path d="M15.5028 8.12138C13.544 9.87985 15.6053 13.0017 16.3786 14.9928C18.0742 19.3583 17.3904 18.8333 18.3059 14.4939C18.6387 12.9163 21.9654 3.14293 22.0022 9.42967C22.0107 10.8912 21.1809 18.4145 23.6225 18.4145" stroke="#1E1E1E" stroke-width="3" stroke-linecap="round" stroke-linejoin="round"/>
<path d="M28.6 7.92816C23.1439 7.92816 27.2886 15.042 30.2596 16.9867C32.9629 18.7562 33.7213 16.1262 32.5708 13.8556C31.428 11.6001 29.7 9.73065 28.3135 7.64474" stroke="#1E1E1E" stroke-width="3" stroke-linecap="round" stroke-linejoin="round"/>
<path d="M35.2426 8.06984C35.2426 11.2714 38.1795 13.3349 39.7445 15.9869C41.3534 18.7132 41.7754 12.0749 43.0017 10.1253C44.7518 7.34277 46.2154 14.8257 47.7782 16.0878C51.6824 19.2409 51.8416 6.55282 51.7595 4.84921" stroke="#1E1E1E" stroke-width="3" stroke-linecap="round" stroke-linejoin="round"/>
</svg>
