<svg width="55" height="16" viewBox="0 0 55 16" fill="none" xmlns="http://www.w3.org/2000/svg">
<path d="M2.11188 1.88392C4.86408 1.55388 4.10132 11.151 4.10132 14.0195" stroke="#1E1E1E" stroke-width="3" stroke-linecap="round" stroke-linejoin="round"/>
<path d="M11.7963 3.41437C10.5864 4.2076 0.526766 10.5625 5.49643 10.5625C6.4967 10.5625 12.7973 10.309 12.7973 12.093" stroke="#1E1E1E" stroke-width="3" stroke-linecap="round" stroke-linejoin="round"/>
<path d="M15.9128 5.46698C15.3643 7.9089 13.5385 7.57736 16.113 10.9606C18.2132 13.7204 18.7243 14.1404 19.629 10.6905C22.3884 0.16705 21.9293 10.7288 24.7965 12.6331" stroke="#1E1E1E" stroke-width="3" stroke-linecap="round" stroke-linejoin="round"/>
<path d="M31.9034 4.80078C26.2819 6.79298 25.1505 9.47301 32.1801 11.6288C36.5522 12.9696 31.3859 5.3327 30.9025 4.33264" stroke="#1E1E1E" stroke-width="3" stroke-linecap="round" stroke-linejoin="round"/>
<path d="M39.5234 4.47668C38.2747 7.02228 35.1406 7.97905 39.5401 10.8206C43.1088 13.1256 43.6706 11.4716 45.1149 8.65393C46.4455 6.05814 55.4401 18.2723 51.6602 4.5307" stroke="#1E1E1E" stroke-width="3" stroke-linecap="round" stroke-linejoin="round"/>
</svg>
