<svg width="51" height="21" viewBox="0 0 51 21" fill="none" xmlns="http://www.w3.org/2000/svg">
<path d="M1.55035 5.45508C1.55035 4.22618 19.4336 4.52547 17.2782 3.40247" stroke="#1E1E1E" stroke-width="3" stroke-linecap="round" stroke-linejoin="round"/>
<path d="M11.7728 3.60052C11.6702 8.57063 11.7694 23.4647 12.1607 18.509" stroke="#1E1E1E" stroke-width="3" stroke-linecap="round" stroke-linejoin="round"/>
<path d="M17.7412 2.53822C17.1808 2.06782 17.6661 4.00023 17.6661 4.73187C17.6661 7.31675 17.8745 9.93935 18.2076 12.5022C18.553 15.1592 19.4428 19.9851 21.5337 15.4341C25.987 5.74125 22.4943 13.1128 25.8366 15.7362" stroke="#1E1E1E" stroke-width="3" stroke-linecap="round" stroke-linejoin="round"/>
<path d="M34.3824 10.7487C33.3899 10.7187 32.6147 10.2808 31.6186 10.2985C29.4933 10.3364 28.6483 15.0422 30.5411 15.8272C36.2084 18.1775 33.7874 6.26407 37.573 15.8622" stroke="#1E1E1E" stroke-width="3" stroke-linecap="round" stroke-linejoin="round"/>
<path d="M43.0158 4.91492C38.4255 4.91492 47.858 19.9565 47.858 16.4564" stroke="#1E1E1E" stroke-width="3" stroke-linecap="round" stroke-linejoin="round"/>
<path d="M40.5509 10.1545C37.6882 10.2629 47.5315 9.85426 48.8465 9.75836" stroke="#1E1E1E" stroke-width="3" stroke-linecap="round" stroke-linejoin="round"/>
</svg>
