<svg width="47" height="20" viewBox="0 0 47 20" fill="none" xmlns="http://www.w3.org/2000/svg">
<path d="M3.17334 3.83037C2.46166 3.83037 2.38507 2.95931 2.38507 2.45596C2.38507 2.16277 3.56901 7.87153 3.57373 9.35202C3.5773 10.4709 2.52295 18.6657 4.65117 17.9466C5.50396 17.6584 12.2041 12.4748 11.3313 14.6336" stroke="#1E1E1E" stroke-width="3" stroke-linecap="round" stroke-linejoin="round"/>
<path d="M18.163 9.19598C6.6141 11.6517 29.2487 23.9254 19.2265 8.60181" stroke="#1E1E1E" stroke-width="3" stroke-linecap="round" stroke-linejoin="round"/>
<path d="M24.0687 8.99792C21.0451 8.99792 27.7443 15.1852 28.8039 16.2551C32.0421 19.5248 32.3159 10.4476 32.6896 8.47577" stroke="#1E1E1E" stroke-width="3" stroke-linecap="round" stroke-linejoin="round"/>
<path d="M37.3317 10.6004C36.2575 11.076 44.6291 8.60181 40.9088 8.60181C38.2459 8.60181 37.5607 11.098 37.6104 13.3382C37.6821 16.5683 42.6621 16.4882 44.9016 16.4882" stroke="#1E1E1E" stroke-width="3" stroke-linecap="round" stroke-linejoin="round"/>
</svg>
