<svg width="91" height="29" viewBox="0 0 91 29" fill="none" xmlns="http://www.w3.org/2000/svg">
<path d="M2.99464 12.3029C-0.512581 12.3029 6.05394 13.4787 7.14591 10.7144C8.59465 7.04699 4.29904 7.26609 3.14617 10.2503C1.5836 14.295 3.43652 16.6062 7.51154 16.6062" stroke="#1E1E1E" stroke-width="3" stroke-linecap="round" stroke-linejoin="round"/>
<path d="M12.7542 8.52179C12.6544 10.1488 11.6207 10.4956 12.7653 12.505C12.9714 12.8669 15.7613 17.3881 16.2673 16.1541C16.5313 15.5103 18.1748 8.9772 19.3064 9.60011C20.3513 10.1754 20.3051 16.3988 21.3751 17.9386" stroke="#1E1E1E" stroke-width="3" stroke-linecap="round" stroke-linejoin="round"/>
<path d="M27.0806 10.1783C20.1832 10.8589 26.1468 16.5767 30.2587 17.7405C34.8867 19.0505 31.4867 10.1783 27.6687 10.1783" stroke="#1E1E1E" stroke-width="3" stroke-linecap="round" stroke-linejoin="round"/>
<path d="M35.5639 11.1686C28.0594 13.8322 41.7487 17.5717 42.0661 16.3741C44.1151 8.64311 40.8663 12.066 45.0482 17.2724" stroke="#1E1E1E" stroke-width="3" stroke-linecap="round" stroke-linejoin="round"/>
<path d="M55.0704 10.8445C53.8775 10.8445 51.0212 10.3311 50.0968 11.2206C47.3393 13.8739 50.0106 17.7812 53.1046 15.0577C55.2261 13.1904 54.2008 10.454 56.0478 15.5599C58.1777 21.4482 58.8994 28.25 50.491 27.0313" stroke="#1E1E1E" stroke-width="3" stroke-linecap="round" stroke-linejoin="round"/>
<path d="M60.238 1.82379C55.2599 1.82379 61.5149 14.5519 64.1571 15.6599C66.2985 16.5579 66.3311 12.1882 67.9059 11.4427C70.5304 10.2001 72.4519 14.2431 73.5134 15.958" stroke="#1E1E1E" stroke-width="3" stroke-linecap="round" stroke-linejoin="round"/>
<path d="M88.966 16.4081C86.8453 16.4081 87.788 19.6066 87.1768 21.4496" stroke="#1E1E1E" stroke-width="3" stroke-linecap="round" stroke-linejoin="round"/>
</svg>
