<svg width="30" height="23" viewBox="0 0 30 23" fill="none" xmlns="http://www.w3.org/2000/svg">
<path d="M3.45062 5.49969C2.16004 5.49969 2.78075 5.57697 3.22471 7.03915C4.09494 9.90529 4.67635 12.8548 5.44006 15.7488C5.83594 17.2488 5.88102 21.4841 6.76636 20.2101" stroke="#1E1E1E" stroke-width="3" stroke-linecap="round" stroke-linejoin="round"/>
<path d="M2.18689 9.92902C2.12039 11.9003 7.73729 10.3653 10.0821 9.80298" stroke="#1E1E1E" stroke-width="3" stroke-linecap="round" stroke-linejoin="round"/>
<path d="M10.6201 2.38477C7.25766 2.38477 10.8938 12.5108 11.2666 14.0823C12.1431 17.777 12.7551 24.711 14.4475 18.0895C14.6965 17.1152 16.582 11.8332 18.6891 13.9262C19.9191 15.148 19.6124 20.0754 21.3556 20.3541" stroke="#1E1E1E" stroke-width="3" stroke-linecap="round" stroke-linejoin="round"/>
<path d="M23.4201 14.0522C18.024 14.7943 26.3848 14.2661 26.8471 12.1377C27.1427 10.7763 24.5498 14.1314 24.3849 15.5147C24.0429 18.3843 25.2507 19.5269 28.0621 19.886" stroke="#1E1E1E" stroke-width="3" stroke-linecap="round" stroke-linejoin="round"/>
</svg>
