<svg width="77" height="31" viewBox="0 0 77 31" fill="none" xmlns="http://www.w3.org/2000/svg">
<path d="M9.82123 6.47889C9.82123 7.46264 9.67278 4.39602 9.05798 3.62804C8.60057 3.05666 6.03185 1.07716 5.321 2.21762C2.98294 5.96871 5.841 13.5322 6.79814 17.2991C7.2303 19 8.44753 23.7305 5.44195 20.9372" stroke="#1E1E1E" stroke-width="3" stroke-linecap="round" stroke-linejoin="round"/>
<path d="M2.26385 14.2392C4.9009 12.8561 7.98446 12.7087 10.8848 12.7087" stroke="#1E1E1E" stroke-width="3" stroke-linecap="round" stroke-linejoin="round"/>
<path d="M15.9272 13.699C15.9272 15.9073 13.3923 15.3994 17.0505 18.2604C17.0819 18.285 19.9353 10.4581 22.0206 10.4581" stroke="#1E1E1E" stroke-width="3" stroke-linecap="round" stroke-linejoin="round"/>
<path d="M24.9485 15.0854C25.6489 15.0854 30.6335 13.3881 29.6739 12.1426C29.3252 11.6899 28.527 15.4669 28.527 15.7556C28.527 17.5545 29.426 18.2895 31.117 18.8126" stroke="#1E1E1E" stroke-width="3" stroke-linecap="round" stroke-linejoin="round"/>
<path d="M37.8736 13.3749C32.034 13.3749 39.1999 16.3096 39.1999 19.4067" stroke="#1E1E1E" stroke-width="3" stroke-linecap="round" stroke-linejoin="round"/>
<path d="M40.8015 7.99133C40.1635 8.35854 36.1825 8.18338 38.6744 8.92761" stroke="#1E1E1E" stroke-width="3" stroke-linecap="round" stroke-linejoin="round"/>
<path d="M48.3588 14.4373C45.598 14.4373 47.5957 12.4464 46.8504 12.1496C45.4759 11.6021 42.3737 17.2647 46.5008 16.803C48.9314 16.5311 49.0104 11.7869 50.6249 16.5639C51.0539 17.833 52.3327 31.269 49.6226 28.0313" stroke="#1E1E1E" stroke-width="3" stroke-linecap="round" stroke-linejoin="round"/>
<path d="M54.5273 4.8764C54.5273 6.38569 55.2012 19.3688 56.9888 18.2554C58.7466 17.1605 59.0641 11.8299 61.6218 11.9705C63.211 12.0579 63.9063 17.3241 65.8008 18.1464" stroke="#1E1E1E" stroke-width="3" stroke-linecap="round" stroke-linejoin="round"/>
<path d="M69.5795 4.01215C65.7811 4.87143 68.4867 8.58906 69.9313 11.2343C70.2354 11.7913 73.9528 19.8522 74.697 18.0023" stroke="#1E1E1E" stroke-width="3" stroke-linecap="round" stroke-linejoin="round"/>
<path d="M67.9279 11.1063C67.9279 11.8873 74.4912 10.5449 75.0849 10.4581" stroke="#1E1E1E" stroke-width="3" stroke-linecap="round" stroke-linejoin="round"/>
</svg>
