<svg width="64" height="23" viewBox="0 0 64 23" fill="none" xmlns="http://www.w3.org/2000/svg">
<path d="M5.91925 10.722C5.91925 15.5259 9.61029 9.42673 5.32492 8.44237C3.49115 8.02114 3.01697 9.35146 3.00391 10.9761C2.98517 13.3057 5.66152 14.1947 7.17186 15.6045C12.7009 20.7655 3.1758 23.6514 2.078 19.4727" stroke="#1E1E1E" stroke-width="3" stroke-linecap="round" stroke-linejoin="round"/>
<path d="M13.8145 2.24152C12.2108 2.42251 14.3687 9.51975 14.5089 10.0999C14.893 11.6902 16.575 19.823 16.6095 19.7097C16.8292 18.989 19.1277 10.8805 21.1091 13.1208C22.1529 14.3009 21.8505 19.9249 23.4363 20.1389" stroke="#1E1E1E" stroke-width="3" stroke-linecap="round" stroke-linejoin="round"/>
<path d="M29.0668 14.3771C28.0802 14.8137 25.3675 14.7613 25.4293 16.0766C25.5215 18.0421 28.2765 19.8398 29.8051 20.675C34.3945 23.1829 30.3497 14.7258 29.267 13.3148" stroke="#1E1E1E" stroke-width="3" stroke-linecap="round" stroke-linejoin="round"/>
<path d="M35.4355 14.1071C35.4355 16.1004 37.6588 24.2054 40.5364 19.4607C41.0599 18.5973 41.7387 13.6757 41.8084 15.2724C41.8858 17.0444 43.321 18.6955 44.9198 19.3466" stroke="#1E1E1E" stroke-width="3" stroke-linecap="round" stroke-linejoin="round"/>
<path d="M48.3106 7.28302C43.7502 10.9061 49.5225 17.0872 51.8265 20.679" stroke="#1E1E1E" stroke-width="3" stroke-linecap="round" stroke-linejoin="round"/>
<path d="M58.3204 14.3771C55.1421 14.3771 55.1446 11.1218 54.5737 15.7716C54.1761 19.0093 55.9971 22.8299 59.8469 20.0848" stroke="#1E1E1E" stroke-width="3" stroke-linecap="round" stroke-linejoin="round"/>
<path d="M58.6582 4.02405C58.6582 5.05018 56.9604 6.24209 56.935 7.75716C56.8691 11.6951 59.2135 14.7656 61.6361 17.6901" stroke="#1E1E1E" stroke-width="3" stroke-linecap="round" stroke-linejoin="round"/>
</svg>
