<svg width="32" height="20" viewBox="0 0 32 20" fill="none" xmlns="http://www.w3.org/2000/svg">
<path d="M4.30604 5.27332C3.9062 3.02933 3.11804 3.60831 4.14685 6.64073C4.65057 8.12542 9.17719 18.1591 7.09626 18.2732" stroke="#1E1E1E" stroke-width="3" stroke-linecap="round" stroke-linejoin="round"/>
<path d="M2.05383 10.3148C4.24153 11.1133 9.27785 10.3423 10.2744 7.99213" stroke="#1E1E1E" stroke-width="3" stroke-linecap="round" stroke-linejoin="round"/>
<path d="M11.2003 1.96032C12.9454 0.301919 13.2092 18.8519 15.2167 17.1769C17.1345 15.5767 17.0223 12.0973 20.0964 12.0973C21.6504 12.0973 20.5176 14.8326 21.4227 15.1583" stroke="#1E1E1E" stroke-width="3" stroke-linecap="round" stroke-linejoin="round"/>
<path d="M23.9377 12.4935C25.8645 13.2116 29.3481 11.1808 29.3805 8.99842C29.4086 7.10417 27.0654 8.96462 26.6792 9.85068C25.3323 12.9413 26.5476 15.2435 29.5181 16.3466" stroke="#1E1E1E" stroke-width="3" stroke-linecap="round" stroke-linejoin="round"/>
</svg>
