<svg width="75" height="28" viewBox="0 0 75 28" fill="none" xmlns="http://www.w3.org/2000/svg">
<path d="M7.25592 7.95191C7.25592 8.47261 6.86043 4.19972 5.31236 3.21249C2.24722 1.25782 0.682335 9.919 4.40036 9.18428C5.95386 8.87728 6.2824 6.26384 7.76753 6.05534C9.62101 5.79513 10.3382 11.1314 10.6314 12.2892C11.4554 15.5425 13.3227 21.99 10.897 24.967C8.65559 27.7177 8.50714 21.0076 8.50714 20.2856" stroke="#1E1E1E" stroke-width="3" stroke-linecap="round" stroke-linejoin="round"/>
<path d="M15.2762 4.83698C15.1422 6.07123 13.8091 7.75541 16.3669 10.3636C17.1318 11.1437 19.4349 1.84359 22.4457 1.59601" stroke="#1E1E1E" stroke-width="3" stroke-linecap="round" stroke-linejoin="round"/>
<path d="M26.6874 4.38685C24.1101 4.38685 25.2694 8.05214 27.4819 8.55209C30.0845 9.14018 32.1759 6.53533 29.9892 4.32683C28.7755 3.10104 22.3832 2.37263 25.2985 3.12647" stroke="#1E1E1E" stroke-width="3" stroke-linecap="round" stroke-linejoin="round"/>
<path d="M35.571 5.30511C35.4091 2.1829 28.6549 6.68783 35.6155 9.81246C38.253 10.9964 41.7744 9.9508 40.1839 6.44245C39.2179 4.31176 31.9804 2.5863 34.3198 2.5863" stroke="#1E1E1E" stroke-width="3" stroke-linecap="round" stroke-linejoin="round"/>
<path d="M43.1409 5.03503C41.508 7.64192 44.5453 8.54928 48.07 9.18127C51.7771 9.84596 48.1925 2.90318 50.4981 1.9201" stroke="#1E1E1E" stroke-width="3" stroke-linecap="round" stroke-linejoin="round"/>
<path d="M54.2142 5.50317C55.9144 7.41784 61.6763 4.437 61.709 2.20619C61.7412 0.0100143 57.0458 3.92929 56.6805 5.28911C55.4944 9.70426 60.2118 10.0765 63.4983 10.0765" stroke="#1E1E1E" stroke-width="3" stroke-linecap="round" stroke-linejoin="round"/>
<path d="M73.3204 12.2732C72.4895 12.2333 71.6836 11.9376 70.868 11.8051" stroke="#1E1E1E" stroke-width="3" stroke-linecap="round" stroke-linejoin="round"/>
</svg>
