<svg width="47" height="19" viewBox="0 0 47 19" fill="none" xmlns="http://www.w3.org/2000/svg">
<path d="M4.42029 4.50629C4.28571 3.11197 7.56761 16.866 6.81012 14.7153" stroke="#1E1E1E" stroke-width="3" stroke-linecap="round" stroke-linejoin="round"/>
<path d="M2.16809 9.67383C2.00149 9.81913 7.44463 8.49532 9.32507 8.21539" stroke="#1E1E1E" stroke-width="3" stroke-linecap="round" stroke-linejoin="round"/>
<path d="M10.7264 1.78748C6.80601 1.78748 11.7896 17.0665 12.9925 14.5433C13.4196 13.6474 16.235 6.76516 16.3889 7.72625C16.672 9.49418 17.2077 13.2851 18.7468 14.4453" stroke="#1E1E1E" stroke-width="3" stroke-linecap="round" stroke-linejoin="round"/>
<path d="M22.0625 10.9882C18.732 13.3477 24.3898 11.7888 24.3898 9.11367C24.3898 7.90348 22.778 10.0841 22.7333 10.8622C22.5743 13.6286 23.5927 15.4189 26.5794 15.5796" stroke="#1E1E1E" stroke-width="3" stroke-linecap="round" stroke-linejoin="round"/>
<path d="M30.5583 10.34C30.5583 17.6873 29.9631 12.6917 33.874 9.47577" stroke="#1E1E1E" stroke-width="3" stroke-linecap="round" stroke-linejoin="round"/>
<path d="M34.925 11.3303C36.5131 15.9008 42.6328 12.6632 42.6951 8.63953C42.727 6.58607 39.4651 9.54565 39.2584 10.8382C38.636 14.7321 41.547 16.2011 44.9473 16.768" stroke="#1E1E1E" stroke-width="3" stroke-linecap="round" stroke-linejoin="round"/>
</svg>
